<svg xmlns="http://www.w3.org/2000/svg" width="348.485" height="118.122" viewBox="0 0 348.485 118.122">
  <g id="Group_169" data-name="Group 169" transform="translate(-686.868 -199.584)">
    <g id="Group_168" data-name="Group 168">
      <g id="Group_167" data-name="Group 167">
        <path id="Path_5" data-name="Path 5" d="M716.313,223.043q-3.352-3.249-10.274-4.234a20.9,20.9,0,0,1-6.171-1.692,7.957,7.957,0,0,1-3.3-2.709,6.422,6.422,0,0,1-1-3.463,6.158,6.158,0,0,1,2.665-5.4,12.02,12.02,0,0,1,7.04-1.867,13.078,13.078,0,0,1,4.26.728,9.092,9.092,0,0,1,3.016,1.8,12.917,12.917,0,0,1,2.086,2.411,2.191,2.191,0,0,0,1.3,1.051,2.227,2.227,0,0,0,1.692-.113,1.909,1.909,0,0,0,.965-1.272,2.257,2.257,0,0,0-.36-1.718,14.429,14.429,0,0,0-3.015-3.454,15.078,15.078,0,0,0-9.889-3.524,18.259,18.259,0,0,0-7.258,1.359,11.582,11.582,0,0,0-4.962,3.848,9.83,9.83,0,0,0-1.8,5.874,10.208,10.208,0,0,0,3.664,7.942c2.429,2.165,5.812,3.507,10.125,4.024q5.327.657,7.811,3.094a7.862,7.862,0,0,1,2.5,5.821,7.617,7.617,0,0,1-1.306,4.506,8.1,8.1,0,0,1-3.568,2.831,13.286,13.286,0,0,1-5.207.973,16.116,16.116,0,0,1-4.874-.7,11.728,11.728,0,0,1-3.831-1.964,8.934,8.934,0,0,1-2.437-2.875,2.536,2.536,0,0,0-1.122-1.166,2.024,2.024,0,0,0-1.525-.166,2.167,2.167,0,0,0-1.411,1.025,1.641,1.641,0,0,0,.026,1.631,12.749,12.749,0,0,0,3.375,4.374,15.738,15.738,0,0,0,5.233,2.911,20.32,20.32,0,0,0,6.566,1.025,18.272,18.272,0,0,0,5.619-.833,14.014,14.014,0,0,0,4.6-2.4,10.848,10.848,0,0,0,3.042-3.91,12.518,12.518,0,0,0,1.078-5.313A11.228,11.228,0,0,0,716.313,223.043Z" fill="#fff"/>
        <path id="Path_6" data-name="Path 6" d="M754.455,220.308a14.591,14.591,0,0,0-5.461-5.488,15.507,15.507,0,0,0-7.89-2,15.664,15.664,0,0,0-7.925,2,14.467,14.467,0,0,0-5.487,5.488,16.843,16.843,0,0,0,0,15.884,14.53,14.53,0,0,0,5.487,5.488,15.745,15.745,0,0,0,7.925,2,15.588,15.588,0,0,0,7.89-2,14.847,14.847,0,0,0,5.487-5.488,15.533,15.533,0,0,0,2.008-7.916A16.076,16.076,0,0,0,754.455,220.308Zm-3.6,13.894a10.64,10.64,0,0,1-4,4.1,11.876,11.876,0,0,1-11.519,0,10.848,10.848,0,0,1-4.006-4.1,11.815,11.815,0,0,1-1.473-5.926,12.018,12.018,0,0,1,1.473-5.961,10.83,10.83,0,0,1,4.006-4.12,11.876,11.876,0,0,1,11.519,0,10.623,10.623,0,0,1,4,4.12,12.281,12.281,0,0,1,1.438,5.961A12.073,12.073,0,0,1,750.852,234.2Z" fill="#fff"/>
        <path id="Path_7" data-name="Path 7" d="M771.479,218.2a9.93,9.93,0,0,1,5.462-1.49,10.266,10.266,0,0,1,8.073,3.647,2.255,2.255,0,0,0,1.315.806,1.651,1.651,0,0,0,1.35-.307,2.2,2.2,0,0,0,.947-1.3,1.546,1.546,0,0,0-.447-1.412,14.117,14.117,0,0,0-5.014-3.988,14.573,14.573,0,0,0-6.224-1.333,14.021,14.021,0,0,0-7.539,2.025,14.4,14.4,0,0,0-5.146,5.506,16.368,16.368,0,0,0-1.894,7.924,15.793,15.793,0,0,0,1.964,7.864,14.784,14.784,0,0,0,5.382,5.514,15.027,15.027,0,0,0,7.785,2.025,14.338,14.338,0,0,0,10.072-3.709,1.517,1.517,0,0,0,.526-1.341,2.13,2.13,0,0,0-.736-1.376,1.875,1.875,0,0,0-1.341-.447,2.476,2.476,0,0,0-1.385.613,8.95,8.95,0,0,1-3.174,1.8,12.941,12.941,0,0,1-3.962.579,10.884,10.884,0,0,1-5.716-1.49,10.453,10.453,0,0,1-3.874-4.1,12.438,12.438,0,0,1-1.377-5.926,13.244,13.244,0,0,1,1.3-5.987A10.151,10.151,0,0,1,771.479,218.2Z" fill="#fff"/>
        <path id="Path_8" data-name="Path 8" d="M801.276,202.109a3.069,3.069,0,0,0-2.078-.807,3.15,3.15,0,0,0-2.13.807,2.755,2.755,0,0,0-.912,2.183,2.937,2.937,0,0,0,.886,2.165,2.89,2.89,0,0,0,2.1.885,3.022,3.022,0,0,0,3.041-3.05A2.729,2.729,0,0,0,801.276,202.109Zm-.553,11.571a2.063,2.063,0,0,0-1.525-.578,2.128,2.128,0,0,0-1.569.578,2.105,2.105,0,0,0-.587,1.578v25.983a2.1,2.1,0,0,0,.587,1.578,2.125,2.125,0,0,0,1.569.579,2.06,2.06,0,0,0,1.525-.579,2.094,2.094,0,0,0,.579-1.578V215.258A2.1,2.1,0,0,0,800.723,213.68Z" fill="#fff"/>
        <path id="Path_9" data-name="Path 9" d="M838.445,220.352a15,15,0,0,0-5.479-5.506,16.245,16.245,0,0,0-15.709,0,14.814,14.814,0,0,0-5.506,5.506,15.514,15.514,0,0,0-2.025,7.924,15.792,15.792,0,0,0,1.964,7.864,14.563,14.563,0,0,0,12.992,7.539,14.091,14.091,0,0,0,7.223-1.859,13.761,13.761,0,0,0,4.3-3.892c.271-.368.517-.754.753-1.148a14.089,14.089,0,0,0,1.85-7.171l1.718-1.333A15.984,15.984,0,0,0,838.445,220.352Zm-3.6,13.824a10.821,10.821,0,0,1-3.989,4.129,11.209,11.209,0,0,1-15.481-4.129,12.478,12.478,0,0,1,0-11.826,11.341,11.341,0,0,1,4.041-4.129,11.1,11.1,0,0,1,15.429,4.129,12.6,12.6,0,0,1,0,11.826Zm2.41-6.733-1.051,4.375v9.476a1.986,1.986,0,0,0,.613,1.525,2.153,2.153,0,0,0,1.552.579,2.18,2.18,0,0,0,1.551-.579,2.009,2.009,0,0,0,.6-1.525V228.276Z" fill="#fff"/>
        <path id="Path_10" data-name="Path 10" d="M857.248,239.769a1.663,1.663,0,0,0-1.332-.579H854.54a2.864,2.864,0,0,1-2.473-1.5,7,7,0,0,1-.964-3.874V202.24a2.1,2.1,0,0,0-.587-1.525,2.314,2.314,0,0,0-3.042,0,2.1,2.1,0,0,0-.587,1.525v31.577a12.233,12.233,0,0,0,.973,4.988,7.97,7.97,0,0,0,2.717,3.374,6.772,6.772,0,0,0,3.963,1.219h.71a2.718,2.718,0,0,0,1.8-.579,1.879,1.879,0,0,0,.693-1.525A2.25,2.25,0,0,0,857.248,239.769Z" fill="#fff"/>
        <path id="Path_11" data-name="Path 11" d="M866.462,213.707a1.986,1.986,0,0,0-1.508-.6,2.086,2.086,0,0,0-1.587.6,2.15,2.15,0,0,0-.578,1.551v26.036a2.059,2.059,0,0,0,.578,1.525,2.14,2.14,0,0,0,1.587.579,2.036,2.036,0,0,0,1.508-.579,2,2,0,0,0,.587-1.525V215.258A2.087,2.087,0,0,0,866.462,213.707Zm18.619,4.988c-.123-.246-.254-.482-.385-.71a10.444,10.444,0,0,0-3.542-3.665,11.534,11.534,0,0,0-11.554,0,10.967,10.967,0,0,0-2.551,2.157,11.608,11.608,0,0,0-1.464,2.13A14.12,14.12,0,0,0,864,224.892h3.051a7.98,7.98,0,0,1,2.218-5.838,7.587,7.587,0,0,1,5.645-2.244,6.732,6.732,0,0,1,5.269,2.3,9.024,9.024,0,0,1,2.042,6.233v15.954a2.02,2.02,0,0,0,.614,1.525,2.153,2.153,0,0,0,1.552.579,1.989,1.989,0,0,0,2.1-2.1V225.226A14.638,14.638,0,0,0,885.081,218.7Zm19.33,0a10.493,10.493,0,0,0-3.936-4.375,10.786,10.786,0,0,0-5.786-1.551,12.151,12.151,0,0,0-6.145,1.551,11,11,0,0,0-3.848,3.665c-.15.228-.29.464-.421.71a13.778,13.778,0,0,0-1.6,6.531h3.822a8.348,8.348,0,0,1,2.13-6.119,7.421,7.421,0,0,1,5.628-2.3,6.723,6.723,0,0,1,5.259,2.3,9.066,9.066,0,0,1,2.052,6.233v15.954a2.009,2.009,0,0,0,.6,1.525,2.18,2.18,0,0,0,1.551.579,2.091,2.091,0,0,0,1.526-.579,2.063,2.063,0,0,0,.578-1.525V225.34A14.727,14.727,0,0,0,904.411,218.7Z" fill="#fff"/>
        <path id="Path_12" data-name="Path 12" d="M939.5,220.018a13.019,13.019,0,0,0-4.848-5.286,13.743,13.743,0,0,0-7.337-1.911,14.146,14.146,0,0,0-7.539,2,13.944,13.944,0,0,0-5.119,5.453,16.7,16.7,0,0,0-1.859,8,16.015,16.015,0,0,0,1.964,7.977,14.175,14.175,0,0,0,5.435,5.453,16.081,16.081,0,0,0,13.377.947,15.091,15.091,0,0,0,4.646-2.577,1.574,1.574,0,0,0,.64-1.333,2.025,2.025,0,0,0-.745-1.438,2,2,0,0,0-1.332-.412,2.2,2.2,0,0,0-1.385.526,9.775,9.775,0,0,1-3.235,1.736,12.328,12.328,0,0,1-4.015.7,11.319,11.319,0,0,1-5.874-1.5,10.755,10.755,0,0,1-4.015-4.1,11.33,11.33,0,0,1-1.4-4.6h22.363a2,2,0,0,0,1.437-.518,1.836,1.836,0,0,0,.553-1.42A16.849,16.849,0,0,0,939.5,220.018Zm-22.564,6.1a12.685,12.685,0,0,1,1.148-3.849,10.051,10.051,0,0,1,3.691-4.129,10.182,10.182,0,0,1,5.54-1.5,9.755,9.755,0,0,1,5.347,1.438,9.608,9.608,0,0,1,3.463,3.989,11.944,11.944,0,0,1,1.078,4.05Z" fill="#fff"/>
        <path id="Path_13" data-name="Path 13" d="M975.067,200.715a2.174,2.174,0,0,0-1.552-.57,2.144,2.144,0,0,0-1.551.57,2.1,2.1,0,0,0-.614,1.578v16.288a13.385,13.385,0,0,0-4.821-4.173,14.148,14.148,0,0,0-6.7-1.587,14.544,14.544,0,0,0-7.644,2.025,14.725,14.725,0,0,0-5.348,5.506,15.81,15.81,0,0,0-1.963,7.863,15.5,15.5,0,0,0,2.025,7.925,14.774,14.774,0,0,0,5.505,5.514,16.219,16.219,0,0,0,15.648.026,14.889,14.889,0,0,0,5.488-5.453,16.123,16.123,0,0,0,2.13-7.784v-26.15A2.1,2.1,0,0,0,975.067,200.715Zm-5.076,33.426a11.283,11.283,0,0,1-15.428,4.138,11.308,11.308,0,0,1-4.042-4.138,11.7,11.7,0,0,1-1.49-5.926,11.831,11.831,0,0,1,1.49-5.9,10.947,10.947,0,0,1,9.757-5.61A11.007,11.007,0,0,1,966,218.2a10.851,10.851,0,0,1,3.988,4.12,11.9,11.9,0,0,1,1.473,5.9A11.77,11.77,0,0,1,969.991,234.141Z" fill="#fff"/>
        <path id="Path_14" data-name="Path 14" d="M989.934,202.109a3.145,3.145,0,0,0-4.207,0,2.727,2.727,0,0,0-.912,2.183,2.936,2.936,0,0,0,.885,2.165,2.878,2.878,0,0,0,2.1.885,3.022,3.022,0,0,0,3.042-3.05A2.755,2.755,0,0,0,989.934,202.109Zm-.561,11.571a2.063,2.063,0,0,0-1.525-.578,2.128,2.128,0,0,0-1.569.578,2.1,2.1,0,0,0-.579,1.578v25.983a2.094,2.094,0,0,0,.579,1.578,2.125,2.125,0,0,0,1.569.579,2.06,2.06,0,0,0,1.525-.579,2.1,2.1,0,0,0,.588-1.578V215.258A2.1,2.1,0,0,0,989.373,213.68Z" fill="#fff"/>
        <path id="Path_15" data-name="Path 15" d="M1027.095,220.352a15,15,0,0,0-5.479-5.506,16.23,16.23,0,0,0-15.7,0,14.893,14.893,0,0,0-5.514,5.506,16.587,16.587,0,0,0-.052,15.788,14.535,14.535,0,0,0,12.983,7.539,14.124,14.124,0,0,0,7.232-1.859,13.714,13.714,0,0,0,4.286-3.892c.263-.368.509-.754.746-1.148a13.944,13.944,0,0,0,1.867-7.171l1.709-1.333A15.9,15.9,0,0,0,1027.095,220.352Zm-3.595,13.824a11.36,11.36,0,0,1-15.428,4.129,11.1,11.1,0,0,1-4.05-4.129,12.478,12.478,0,0,1,0-11.826,11.365,11.365,0,0,1,4.05-4.129,11.549,11.549,0,0,1,11.44,0,11.2,11.2,0,0,1,3.988,4.129,12.673,12.673,0,0,1,0,11.826Zm2.411-6.733-1.061,4.375v9.476a2.02,2.02,0,0,0,.614,1.525,2.151,2.151,0,0,0,1.552.579,2.18,2.18,0,0,0,1.551-.579,2.01,2.01,0,0,0,.6-1.525V228.276Z" fill="#fff"/>
      </g>
    </g>
    <path id="Path_16" data-name="Path 16" d="M686.868,261.356v56.35h49.713v-56.35Zm33.861,22.219A2.563,2.563,0,0,1,719.7,285a1.917,1.917,0,0,1-1.106.36,1.828,1.828,0,0,1-.426-.041,2.955,2.955,0,0,1-1.442-.811,6.231,6.231,0,0,0-4.71-2.015,6.52,6.52,0,0,0-3.482.917,6.236,6.236,0,0,0-2.36,2.515,8.35,8.35,0,0,0-.852,3.875,7.693,7.693,0,0,0,.877,3.736,6.584,6.584,0,0,0,2.408,2.581,6.789,6.789,0,0,0,3.613.942,8.1,8.1,0,0,0,2.393-.319,5.767,5.767,0,0,0,1.859-1.024,2.827,2.827,0,0,1,1.532-.664c.066,0,.131-.008.189-.008a1.923,1.923,0,0,1,1.286.475,2.317,2.317,0,0,1,.893,1.5,1.825,1.825,0,0,1-.59,1.565,10.7,10.7,0,0,1-7.562,2.835,11.576,11.576,0,0,1-5.972-1.532,11.354,11.354,0,0,1-4.121-4.146,11.906,11.906,0,0,1-1.483-5.94,12.276,12.276,0,0,1,1.458-6.021,10.675,10.675,0,0,1,4.048-4.137,11.434,11.434,0,0,1,5.866-1.5,10.8,10.8,0,0,1,4.538.951,10.976,10.976,0,0,1,3.7,2.834A1.82,1.82,0,0,1,720.729,283.575ZM769.451,286a6.316,6.316,0,0,0-2.417-2.572,7.267,7.267,0,0,0-7.128,0A6.461,6.461,0,0,0,757.473,286a7.827,7.827,0,0,0-.893,3.8,7.705,7.705,0,0,0,.893,3.777,6.664,6.664,0,0,0,2.433,2.565,7.384,7.384,0,0,0,7.128,0,6.51,6.51,0,0,0,2.417-2.565,7.984,7.984,0,0,0,.876-3.777A8.112,8.112,0,0,0,769.451,286Zm0,0a6.316,6.316,0,0,0-2.417-2.572,7.267,7.267,0,0,0-7.128,0A6.461,6.461,0,0,0,757.473,286a7.827,7.827,0,0,0-.893,3.8,7.705,7.705,0,0,0,.893,3.777,6.664,6.664,0,0,0,2.433,2.565,7.384,7.384,0,0,0,7.128,0,6.51,6.51,0,0,0,2.417-2.565,7.984,7.984,0,0,0,.876-3.777A8.112,8.112,0,0,0,769.451,286Zm0,0a6.316,6.316,0,0,0-2.417-2.572,7.267,7.267,0,0,0-7.128,0A6.461,6.461,0,0,0,757.473,286a7.827,7.827,0,0,0-.893,3.8,7.705,7.705,0,0,0,.893,3.777,6.664,6.664,0,0,0,2.433,2.565,7.384,7.384,0,0,0,7.128,0,6.51,6.51,0,0,0,2.417-2.565,7.984,7.984,0,0,0,.876-3.777A8.112,8.112,0,0,0,769.451,286Zm-29.314-24.57v56.276H786.5V261.43Zm33.4,34.377a10.719,10.719,0,0,1-4.08,4.121,12.774,12.774,0,0,1-11.978,0,10.928,10.928,0,0,1-4.1-4.121,12.984,12.984,0,0,1,0-12.052,10.73,10.73,0,0,1,4.1-4.112,12.624,12.624,0,0,1,11.937,0,10.7,10.7,0,0,1,4.1,4.112,12.988,12.988,0,0,1,.017,12.052Zm-6.505-12.379a7.267,7.267,0,0,0-7.128,0A6.461,6.461,0,0,0,757.473,286a7.827,7.827,0,0,0-.893,3.8,7.705,7.705,0,0,0,.893,3.777,6.664,6.664,0,0,0,2.433,2.565,7.384,7.384,0,0,0,7.128,0,6.51,6.51,0,0,0,2.417-2.565,7.984,7.984,0,0,0,.876-3.777,8.112,8.112,0,0,0-.876-3.8A6.316,6.316,0,0,0,767.034,283.428ZM769.451,286a6.316,6.316,0,0,0-2.417-2.572,7.267,7.267,0,0,0-7.128,0A6.461,6.461,0,0,0,757.473,286a7.827,7.827,0,0,0-.893,3.8,7.705,7.705,0,0,0,.893,3.777,6.664,6.664,0,0,0,2.433,2.565,7.384,7.384,0,0,0,7.128,0,6.51,6.51,0,0,0,2.417-2.565,7.984,7.984,0,0,0,.876-3.777A8.112,8.112,0,0,0,769.451,286Zm20.49-24.57v56.276h46.354V261.43Zm33.393,37.408a2.348,2.348,0,0,1-.663,1.712,2.29,2.29,0,0,1-1.754.7,2.33,2.33,0,0,1-1.728-.68,2.387,2.387,0,0,1-.68-1.393,8.992,8.992,0,0,1-1.557,1.057,10.254,10.254,0,0,1-5.03,1.229,10.867,10.867,0,0,1-5.2-1.237,9.14,9.14,0,0,1-3.629-3.663,12.072,12.072,0,0,1-1.319-5.866v-10a2.294,2.294,0,0,1,.688-1.728,2.493,2.493,0,0,1,3.458,0,2.359,2.359,0,0,1,.688,1.728v10a7.175,7.175,0,0,0,.811,3.589,4.967,4.967,0,0,0,2.171,2.064,7.106,7.106,0,0,0,3.138.672,6.408,6.408,0,0,0,2.966-.655,5.193,5.193,0,0,0,2.039-1.753,4.171,4.171,0,0,0,.754-2.45v-11.47a2.324,2.324,0,0,1,.7-1.753,2.591,2.591,0,0,1,3.482,0,2.366,2.366,0,0,1,.663,1.753ZM839.5,261.43v56.276h46.363V261.43Zm35.565,37.449a2.421,2.421,0,1,1-4.842,0v-10.02a7.089,7.089,0,0,0-.811-3.6,5.02,5.02,0,0,0-2.147-2.032,7.088,7.088,0,0,0-3.162-.688,6.577,6.577,0,0,0-2.941.655,5.428,5.428,0,0,0-2.073,1.737,4.22,4.22,0,0,0-.745,2.474v11.478a2.4,2.4,0,0,1-.672,1.72,2.523,2.523,0,0,1-3.482,0,2.363,2.363,0,0,1-.688-1.72V280.732a2.379,2.379,0,0,1,.7-1.761,2.411,2.411,0,0,1,1.712-.664,2.369,2.369,0,0,1,1.762.68,2.317,2.317,0,0,1,.655,1.409,9.486,9.486,0,0,1,1.581-1.065,10.2,10.2,0,0,1,5-1.229,10.743,10.743,0,0,1,5.194,1.246,9,9,0,0,1,3.638,3.662,11.894,11.894,0,0,1,1.327,5.849Zm14.108-37.416v56.243h46.371V261.463ZM917.4,300.6a2.9,2.9,0,0,1-1.95.648h-.737a7.069,7.069,0,0,1-3.843-1.082,7.685,7.685,0,0,1-2.687-2.957,9.065,9.065,0,0,1-.975-4.187v-9.708h-1.532a2.3,2.3,0,0,1-1.614-.582,1.94,1.94,0,0,1-.639-1.483,2.032,2.032,0,0,1,.639-1.548,2.3,2.3,0,0,1,1.614-.582h1.532v-5.505a2.375,2.375,0,0,1,.672-1.721,2.381,2.381,0,0,1,4.088,1.721v5.505h3.1a2.286,2.286,0,0,1,1.622.582,2.008,2.008,0,0,1,.648,1.548,1.918,1.918,0,0,1-.648,1.483,2.286,2.286,0,0,1-1.622.582h-3.1v9.708a3.943,3.943,0,0,0,.811,2.5,2.422,2.422,0,0,0,1.934.975H916.1a1.913,1.913,0,0,1,1.5.688,2.441,2.441,0,0,1,.6,1.7A2.152,2.152,0,0,1,917.4,300.6Zm49.885-14.984a5.651,5.651,0,0,0-2.064-2.392,5.822,5.822,0,0,0-3.269-.893,7.027,7.027,0,0,0-3.785.966,6.274,6.274,0,0,0-2.376,2.655,7.736,7.736,0,0,0-.59,1.671h12.723A7.374,7.374,0,0,0,967.288,285.615Zm0,0a5.651,5.651,0,0,0-2.064-2.392,5.822,5.822,0,0,0-3.269-.893,7.027,7.027,0,0,0-3.785.966,6.274,6.274,0,0,0-2.376,2.655,7.736,7.736,0,0,0-.59,1.671h12.723A7.374,7.374,0,0,0,967.288,285.615Zm0,0a5.651,5.651,0,0,0-2.064-2.392,5.822,5.822,0,0,0-3.269-.893,7.027,7.027,0,0,0-3.785.966,6.274,6.274,0,0,0-2.376,2.655,7.736,7.736,0,0,0-.59,1.671h12.723A7.374,7.374,0,0,0,967.288,285.615ZM938.917,261.43v56.276h46.354V261.43Zm32.877,29.527a2.15,2.15,0,0,1-1.581.614H955.155a7.062,7.062,0,0,0,.786,2.048,7.208,7.208,0,0,0,2.679,2.638,7.845,7.845,0,0,0,3.941.975,7.494,7.494,0,0,0,2.466-.458,7.834,7.834,0,0,0,2.048-1.016,2.538,2.538,0,0,1,1.524-.541h.066a2.115,2.115,0,0,1,1.4.5,2.25,2.25,0,0,1,.852,1.589,1.746,1.746,0,0,1-.779,1.557,11.767,11.767,0,0,1-3.547,1.851,12.747,12.747,0,0,1-4.031.705,12.593,12.593,0,0,1-6.169-1.491,10.886,10.886,0,0,1-4.236-4.113,11.712,11.712,0,0,1-1.54-6.014,12.389,12.389,0,0,1,1.45-6.046,10.663,10.663,0,0,1,4.023-4.112,11.457,11.457,0,0,1,5.866-1.5,10.54,10.54,0,0,1,5.628,1.459,9.471,9.471,0,0,1,3.613,4.014,13.147,13.147,0,0,1,1.237,5.825A2.03,2.03,0,0,1,971.794,290.957Zm-6.57-7.734a5.822,5.822,0,0,0-3.269-.893,7.027,7.027,0,0,0-3.785.966,6.274,6.274,0,0,0-2.376,2.655,7.736,7.736,0,0,0-.59,1.671h12.723a7.374,7.374,0,0,0-.639-2.007A5.651,5.651,0,0,0,965.224,283.223Zm2.064,2.392a5.651,5.651,0,0,0-2.064-2.392,5.822,5.822,0,0,0-3.269-.893,7.027,7.027,0,0,0-3.785.966,6.274,6.274,0,0,0-2.376,2.655,7.736,7.736,0,0,0-.59,1.671h12.723A7.374,7.374,0,0,0,967.288,285.615ZM989,261.43v56.276h46.354V261.43Zm31.141,19.753a1.806,1.806,0,0,1-.566,1.048,2,2,0,0,1-.967.467,2.323,2.323,0,0,1-.426.033,3.361,3.361,0,0,1-.68-.082,13.471,13.471,0,0,0-2.6-.27,9.087,9.087,0,0,0-1.933.2,5.978,5.978,0,0,0-3.1,1.564,3.865,3.865,0,0,0-1.1,2.86v11.879a2.463,2.463,0,0,1-.614,1.745,2.367,2.367,0,0,1-1.77.623,2.4,2.4,0,0,1-1.753-.607,2.335,2.335,0,0,1-.631-1.761V280.691a2.41,2.41,0,0,1,.623-1.753,2.818,2.818,0,0,1,3.523-.025,2.345,2.345,0,0,1,.606,1.68,9.7,9.7,0,0,1,1.86-1.344,9.35,9.35,0,0,1,4.637-1.188,7.016,7.016,0,0,1,3.834.852A2,2,0,0,1,1020.14,281.183Z" fill="#fff"/>
  </g>
</svg>
